<svg xmlns="http://www.w3.org/2000/svg" fill="none" viewBox="0 0 16 16">
  <g clip-path="url(#a)">
    <path fill="currentColor" d="M2.5 0A2.5 2.5 0 0 0 0 2.5v6A2.5 2.5 0 0 0 2.5 11H3a1 1 0 1 0 0-2h-.5a.5.5 0 0 1-.5-.5v-6a.5.5 0 0 1 .5-.5h6a.5.5 0 0 1 .5.5V3a1 1 0 1 0 2 0v-.5A2.5 2.5 0 0 0 8.5 0h-6Z"/>
    <path fill="currentColor" fill-rule="evenodd" d="M7.5 5A2.5 2.5 0 0 0 5 7.5v6A2.5 2.5 0 0 0 7.5 16h6a2.5 2.5 0 0 0 2.5-2.5v-6A2.5 2.5 0 0 0 13.5 5h-6ZM7 7.5a.5.5 0 0 1 .5-.5h6a.5.5 0 0 1 .5.5v6a.5.5 0 0 1-.5.5h-6a.5.5 0 0 1-.5-.5v-6Z" clip-rule="evenodd"/>
  </g>
  <defs>
    <clipPath id="a">
      <path fill="#fff" d="M0 0h16v16H0z"/>
    </clipPath>
  </defs>
</svg>
