<svg xmlns="http://www.w3.org/2000/svg" fill="none" viewBox="0 0 16 16">
  <g clip-path="url(#a)">
    <path stroke="currentColor" stroke-linecap="round" stroke-linejoin="round" stroke-width="2" d="M15 5h-4m0 0V1m0 4 4-4m0 10.482v2.107a1.403 1.403 0 0 1-.957 1.337 1.41 1.41 0 0 1-.578.068 13.95 13.95 0 0 1-6.075-2.156 13.714 13.714 0 0 1-4.223-4.216 13.885 13.885 0 0 1-2.161-6.09 1.403 1.403 0 0 1 .833-1.412A1.41 1.41 0 0 1 2.407 1h2.111a1.41 1.41 0 0 1 1.408 1.208 9.06 9.06 0 0 0 .493 1.974 1.402 1.402 0 0 1-.317 1.483l-.894.892a11.251 11.251 0 0 0 4.224 4.215l.894-.892a1.408 1.408 0 0 1 1.485-.316 9.056 9.056 0 0 0 1.978.492 1.408 1.408 0 0 1 1.21 1.426Z"/>
  </g>
  <defs>
    <clipPath id="a">
      <path fill="#fff" d="M0 0h16v16H0z"/>
    </clipPath>
  </defs>
</svg>
