<svg xmlns="http://www.w3.org/2000/svg" fill="none" viewBox="0 0 16 16">
  <path stroke="currentColor" stroke-opacity=".49" stroke-width=".01" d="M4.005 2.005h3.646a5.972 5.972 0 0 0-2.97.99h-.676v-.99Zm4.344 0h3.646v.99h-.676a5.972 5.972 0 0 0-2.97-.99Zm-.349 0c1.22 0 2.354.364 3.301.99H4.7a5.967 5.967 0 0 1 3.3-.99Zm-3.316 1h6.632c.24.159.466.334.679.525v.465h-7.99V3.53c.213-.19.44-.366.679-.525Zm-.679 0h.66a6.03 6.03 0 0 0-.66.512v-.512Zm-.01 0v.52a6.041 6.041 0 0 0-.47.47h-.52v-.99h.99Zm-.99 1h.512a6.03 6.03 0 0 0-.512.66v-.66Zm0 .679a6.02 6.02 0 0 1 .525-.679h.465v7.99H3.53a6.026 6.026 0 0 1-.525-.679V4.684Zm-.01-.679v.676a5.972 5.972 0 0 0-.99 2.97V4.005h.99Zm8.34-1h.66v.512a6.03 6.03 0 0 0-.66-.512Zm.67.52v-.52h.99v.99h-.52a6.025 6.025 0 0 0-.47-.47Zm0 .47v-.456c.16.144.312.296.456.456h-.456Zm0 .01h.465c.19.213.366.44.525.679v6.632a6.035 6.035 0 0 1-.525.679h-.465v-7.99Zm1 7.296V4.7c.626.947.99 2.081.99 3.301 0 1.22-.364 2.354-.99 3.301Zm.99-3.65a5.971 5.971 0 0 0-.99-2.97v-.676h.99v3.646Zm-.99 3.668c.571-.86.927-1.875.99-2.97v3.646h-.99v-.676Zm-.01.015v.661h-.512a5.94 5.94 0 0 0 .512-.66Zm-.52.671h.52v.99h-.99v-.52a6.13 6.13 0 0 0 .47-.47Zm-.47 0h.456a6.13 6.13 0 0 1-.456.456v-.456Zm-.01 0v.465c-.213.19-.44.366-.679.525H4.684a6.018 6.018 0 0 1-.679-.525v-.465h7.99Zm-7.296 1H11.3a5.967 5.967 0 0 1-3.301.99 5.967 5.967 0 0 1-3.301-.99Zm3.65.99a5.972 5.972 0 0 0 2.97-.99h.676v.99H8.349Zm-.698 0H4.005v-.99h.676c.86.571 1.875.927 2.97.99Zm-2.985-1h-.661v-.512c.208.186.429.357.66.512Zm-.671-.52v.52h-.99v-.99h.52c.148.165.305.322.47.47Zm0-.47v.456a6.024 6.024 0 0 1-.456-.456h.456Zm-.99-.67c.155.231.326.452.512.66h-.512v-.66Zm-.01-.016v.676h-.99V8.349a5.972 5.972 0 0 0 .99 2.97Zm0-.018A5.967 5.967 0 0 1 2.005 8c0-1.22.364-2.354.99-3.301V11.3Zm9 1.694h-.66c.231-.155.452-.326.66-.512v.512Zm0-1h-7.99v-7.99h7.99v7.99Zm1-7.99v.66a6.029 6.029 0 0 0-.512-.66h.512Zm-9-.01h-.456a6.03 6.03 0 0 1 .456-.456v.456Zm7 4.005a2.995 2.995 0 1 1-5.99 0 2.995 2.995 0 0 1 5.99 0ZM8 11.005a3.005 3.005 0 1 0 0-6.01 3.005 3.005 0 0 0 0 6.01Z"/>
  <path fill="currentColor" fill-rule="evenodd" d="M9 6.83a3.001 3.001 0 1 0-2 0V14a1 1 0 1 0 2 0V6.83Z" clip-rule="evenodd"/>
</svg>
