<svg xmlns="http://www.w3.org/2000/svg" fill="none" viewBox="0 0 16 16">
  <g clip-path="url(#a)">
    <path stroke="currentColor" stroke-linecap="round" stroke-linejoin="round" stroke-width="2" d="M6 6.5a.5.5 0 0 0-.5-.5h-4a.5.5 0 1 0 0 1h4a.5.5 0 0 0 .5-.5ZM5 3h1V2a1 1 0 1 0-2 0 1 1 0 0 0 1 1Zm4.5 3a.5.5 0 0 0 .5-.5v-4a.5.5 0 1 0-1 0v4a.5.5 0 0 0 .5.5ZM13 5v1h1a1 1 0 1 0 0-2 1 1 0 0 0-1 1Zm-3 4.5a.5.5 0 0 0 .5.5h4a.5.5 0 1 0 0-1h-4a.5.5 0 0 0-.5.5Zm1 3.5h-1v1a1 1 0 1 0 2 0 1 1 0 0 0-1-1Zm-4.5-3a.5.5 0 0 0-.5.5v4a.5.5 0 1 0 1 0v-4a.5.5 0 0 0-.5-.5ZM3 11v-1H2a1 1 0 1 0 0 2 1 1 0 0 0 1-1Z"/>
  </g>
  <defs>
    <clipPath id="a">
      <path fill="#fff" d="M0 0h16v16H0z"/>
    </clipPath>
  </defs>
</svg>
