<svg xmlns="http://www.w3.org/2000/svg" fill="none" viewBox="0 0 16 16">
  <g clip-path="url(#a)">
    <path fill="currentColor" d="M8 7a1.5 1.5 0 1 0 0-3 1.5 1.5 0 0 0 0 3Z"/>
    <path stroke="currentColor" stroke-linecap="round" stroke-linejoin="round" stroke-width="2" d="M12 13c0-.796-.225-1.559-.625-2.121-.4-.563-.943-.879-1.508-.879H6.133c-.565 0-1.108.316-1.508.879C4.225 11.44 4 12.204 4 13m11-5A7 7 0 1 1 1 8a7 7 0 0 1 14 0ZM9.5 5.5a1.5 1.5 0 1 1-3 0 1.5 1.5 0 0 1 3 0Z"/>
  </g>
  <defs>
    <clipPath id="a">
      <path fill="#fff" d="M0 0h16v16H0z"/>
    </clipPath>
  </defs>
</svg>
